<svg xmlns="http://www.w3.org/2000/svg" viewBox="0 0 790.72 188.28"><defs><style>.cls-1{fill:#002619;}.cls-2{fill:#3ab694;}.cls-3{fill:#fff;}</style></defs><g id="Layer_2" data-name="Layer 2"><g id="Layer_1-2" data-name="Layer 1"><path class="cls-1" d="M254,59.28q-9.81-9.81-24.55-9.81H190.85V155.9H205v-38h24.48q14.75,0,24.55-9.88a33.2,33.2,0,0,0,9.81-24.33Q263.83,69.09,254,59.28Zm-10,39.38a19.4,19.4,0,0,1-14.59,6H205v-42h24.48a19.53,19.53,0,0,1,14.59,5.93,20.68,20.68,0,0,1,5.78,15.05A20.76,20.76,0,0,1,244.06,98.66Z"/><path class="cls-1" d="M338.86,49.47V129.4l-55.2-79.93H272.73V155.9h14.14V76.38L341.6,155.9H353V49.47Z"/><path class="cls-1" d="M469.92,64.91q-14.37-15.44-36.11-15.44h-41.5V155.9h41.5q21.74,0,36.11-15.43t14.37-37.78Q484.29,80.34,469.92,64.91Zm-9.5,66.21q-10.35,11.4-26.61,11.4H406.44V62.85h27.37q16.26,0,26.61,11.41t10.34,28.43Q470.76,119.72,460.42,131.12Z"/><path class="cls-1" d="M494.32,79.88v76h13.22v-76Zm12.92-29A8.38,8.38,0,0,0,501,48.26a8.56,8.56,0,0,0-6.39,2.66A8.76,8.76,0,0,0,492,57.23a8.49,8.49,0,0,0,2.58,6.23A8.65,8.65,0,0,0,501,66.05a8.83,8.83,0,0,0,8.81-8.82A8.76,8.76,0,0,0,507.24,50.92Z"/><path class="cls-1" d="M584.93,79.88V93Q575,77.9,556.34,77.9a37.08,37.08,0,0,0-27.52,11.48,38.58,38.58,0,0,0-11.25,28.05,38.81,38.81,0,0,0,11.25,28.13,36.92,36.92,0,0,0,27.52,11.56q18.55,0,28.59-15.21v10.8q0,10.78-6.77,17T559.54,176Q541,176,534.75,163.2l-11.55,6.53a31.87,31.87,0,0,0,14,13.76q9.27,4.8,22,4.79,16,0,27.37-9.35T598,152.71V79.88Zm-7.76,56.86a27.06,27.06,0,0,1-46.37-19.31,27.07,27.07,0,1,1,54.13,0A26.2,26.2,0,0,1,577.17,136.74Z"/><path class="cls-1" d="M608.29,79.88v76h13.23v-76Zm12.92-29A8.38,8.38,0,0,0,615,48.26a8.55,8.55,0,0,0-6.38,2.66A8.72,8.72,0,0,0,606,57.23a8.46,8.46,0,0,0,2.59,6.23A8.64,8.64,0,0,0,615,66.05a8.84,8.84,0,0,0,8.82-8.82A8.72,8.72,0,0,0,621.21,50.92Z"/><path class="cls-1" d="M681.14,92V79.18H660.91V57.89l-13.22,4V79.18H632.64V92h15.05v41.2q0,14.15,8.06,19.23t25.39,2.81V143.34c-4.46.2-8.21.28-11.26.22s-5.29-.86-6.76-2.43-2.21-4.23-2.21-8V92Z"/><path class="cls-1" d="M754,77.9V91q-9.88-15-28.73-15A36.49,36.49,0,0,0,698,87.56a39.26,39.26,0,0,0-11.25,28.35A39.26,39.26,0,0,0,698,144.27a36.49,36.49,0,0,0,27.22,11.63q18.84,0,28.73-15.05v13.07h13.23v-76Zm-7.75,57.4a27.54,27.54,0,0,1-38.47,0A26.46,26.46,0,0,1,700,115.91a26.45,26.45,0,0,1,7.75-19.38,27.54,27.54,0,0,1,38.47,0A26.45,26.45,0,0,1,754,115.91,26.46,26.46,0,0,1,746.23,135.3Z"/><path class="cls-1" d="M777.5,48.26V155.9h13.22V48.26Z"/><path class="cls-2" d="M81.25,43.09A2.23,2.23,0,0,1,79,45.33,17.75,17.75,0,0,0,61.28,63.06a2.24,2.24,0,1,1-4.47,0A22.23,22.23,0,0,1,79,40.86,2.23,2.23,0,0,1,81.25,43.09Z"/><path class="cls-2" d="M139.57,18.47A62.91,62.91,0,0,0,95,0H37.08A37.08,37.08,0,0,0,0,37.08V152.43a35.85,35.85,0,0,0,69.87,11.33l12.54-37.63H95a63.07,63.07,0,0,0,44.6-107.66ZM79,94.47a31.23,31.23,0,0,1-14.94-3.78l-29,29V96L52,79.07a31.4,31.4,0,1,1,27,15.4Z"/><path class="cls-3" d="M81.25,43.09A2.23,2.23,0,0,1,79,45.33,17.75,17.75,0,0,0,61.28,63.06a2.24,2.24,0,1,1-4.47,0A22.23,22.23,0,0,1,79,40.86,2.23,2.23,0,0,1,81.25,43.09Z"/><path class="cls-2" d="M81.25,43.09A2.23,2.23,0,0,1,79,45.33,17.75,17.75,0,0,0,61.28,63.06a2.24,2.24,0,1,1-4.47,0A22.23,22.23,0,0,1,79,40.86,2.23,2.23,0,0,1,81.25,43.09Z"/></g></g></svg>