<svg id="Layer_1" data-name="Layer 1" xmlns="http://www.w3.org/2000/svg" viewBox="0 0 144 100.87"><defs><style>.cls-1{fill:#111;}.cls-2{fill:#fc0;}</style></defs><path class="cls-1" d="M30.51,39.88,19.73,50.69,31.55,62.52h-10l-9-9.05v9.05H4.64V24.57h7.81V47.78l7.9-7.9Z" transform="translate(-3 -24.57)"/><path class="cls-1" d="M56.05,52.29H39.65a4.12,4.12,0,0,0,1.53,3.53A5.54,5.54,0,0,0,44.54,57a7.37,7.37,0,0,0,3-.5,9.18,9.18,0,0,0,2.53-2l5.64,2.83c-2.35,3.95-6.27,5.92-11.73,5.92a12.32,12.32,0,0,1-8.8-3.5,11.65,11.65,0,0,1,0-16.94A12.23,12.23,0,0,1,44,39.21a12.42,12.42,0,0,1,8.75,3.11q3.38,3.12,3.38,8.9A7.89,7.89,0,0,1,56.05,52.29ZM39.86,48h8.61a4.25,4.25,0,0,0-1.39-2.7,4.34,4.34,0,0,0-2.9-1,4.51,4.51,0,0,0-3.09,1A3.67,3.67,0,0,0,39.86,48Z" transform="translate(-3 -24.57)"/><path class="cls-1" d="M76.94,39.88h9L68.16,74h-9L67,59,56.24,39.88h9l6.31,11.6Z" transform="translate(-3 -24.57)"/><path class="cls-1" d="M6.17,110.5a13,13,0,0,1,0-17A10.44,10.44,0,0,1,14.25,90a10.23,10.23,0,0,1,7.42,2.82V75.33h7.82v38H21.76v-2.57h-.09A9.53,9.53,0,0,1,14.25,114,10.5,10.5,0,0,1,6.17,110.5Zm6.64-12.35a5.28,5.28,0,0,0,3.79,9.13,5,5,0,0,0,3.76-1.5,5.33,5.33,0,0,0-3.76-9.13A5.2,5.2,0,0,0,12.81,98.15Z" transform="translate(-3 -24.57)"/><path class="cls-2" d="M35.53,78a4.6,4.6,0,1,1-1.36,3.27A4.46,4.46,0,0,1,35.53,78Z" transform="translate(-3 -24.57)"/><rect class="cls-1" x="31.79" y="66.08" width="7.81" height="22.64"/><path class="cls-1" d="M47.1,118.85l6.4-3.14c1.17,1.94,3.22,2.91,6.13,2.91a6.16,6.16,0,0,0,3.77-1.3,4.67,4.67,0,0,0,1.75-4v-1.68c-1.39,1.54-3.86,2.3-7.42,2.3a10.52,10.52,0,0,1-8.08-3.45,13,13,0,0,1,0-17A10.45,10.45,0,0,1,57.73,90a10.35,10.35,0,0,1,7.3,2.7h.12v-2H73v23.26q0,5.52-3.67,8.52t-9.67,3Q49.93,125.43,47.1,118.85Zm9.19-20.7a5.28,5.28,0,0,0,3.79,9.13,5,5,0,0,0,3.76-1.5,5.57,5.57,0,0,0,0-7.63,5.08,5.08,0,0,0-3.72-1.5A5.21,5.21,0,0,0,56.29,98.15Z" transform="translate(-3 -24.57)"/><path class="cls-2" d="M79,78a4.6,4.6,0,1,1-1.36,3.27A4.46,4.46,0,0,1,79,78Z" transform="translate(-3 -24.57)"/><rect class="cls-1" x="75.27" y="66.08" width="7.81" height="22.64"/><path class="cls-1" d="M92.92,90.65V82.22h7.81v8.43h4.78v6h-4.78v7.19c0,2.09.59,3.13,1.78,3.13a2.88,2.88,0,0,0,.92-.16,3.36,3.36,0,0,0,.74-.37l.28-.18,1.94,6.32a11.58,11.58,0,0,1-5.75,1.41,8.52,8.52,0,0,1-3.79-.77,5.56,5.56,0,0,1-2.41-2.08,9.39,9.39,0,0,1-1.17-2.73,13.06,13.06,0,0,1-.35-3.07V96.61H89.66v-6Z" transform="translate(-3 -24.57)"/><path class="cls-1" d="M110.57,110.5a13,13,0,0,1,0-17A10.45,10.45,0,0,1,118.65,90a10.22,10.22,0,0,1,7.42,2.82V90.65h7.82v22.64h-7.73v-2.57h-.09a9.52,9.52,0,0,1-7.42,3.23A10.52,10.52,0,0,1,110.57,110.5Zm6.64-12.35a5.28,5.28,0,0,0,3.79,9.13,5,5,0,0,0,3.76-1.5,5.57,5.57,0,0,0,0-7.63,5.08,5.08,0,0,0-3.72-1.5A5.21,5.21,0,0,0,117.21,98.15Z" transform="translate(-3 -24.57)"/><path class="cls-1" d="M139.19,113.29v-38H147v38Z" transform="translate(-3 -24.57)"/></svg>