<svg fill="none" height="24" viewBox="0 0 122 24" width="122" xmlns="http://www.w3.org/2000/svg" xmlns:xlink="http://www.w3.org/1999/xlink"><radialGradient id="a" cx="0" cy="0" gradientTransform="matrix(22.85577687 -13.28102707 15.76497398 27.13048666 2.10878 22.3741)" gradientUnits="userSpaceOnUse" r="1"><stop offset="0" stop-color="#2bcbff"/><stop offset="1" stop-color="#7542ff"/></radialGradient><linearGradient id="b" gradientUnits="userSpaceOnUse" x1="11.1422" x2="13.69" y1="9.63361" y2="11.6024"><stop offset="0" stop-opacity="0"/><stop offset="1" stop-opacity=".2"/></linearGradient><linearGradient id="c" gradientUnits="userSpaceOnUse" x1="21.2177" x2="21.2177" y1="4.61454" y2="7.81929"><stop offset="0" stop-opacity="0"/><stop offset="1" stop-opacity=".3"/></linearGradient><linearGradient id="d" gradientUnits="userSpaceOnUse" x1="26.1226" x2="22.4161" y1="20.0579" y2="22.7211"><stop offset="0" stop-opacity="0"/><stop offset="1" stop-opacity=".4"/></linearGradient><clipPath id="e"><path d="m.25 0h121.5v24h-121.5z"/></clipPath><mask id="f" height="24" maskUnits="userSpaceOnUse" width="128" x="-3" y="0"><path d="m-2.75 0h127.5v24h-127.5z" fill="#fff"/></mask><mask id="g" height="25" maskUnits="userSpaceOnUse" width="30" x="0" y="-1"><path clip-rule="evenodd" d="m22.648 7.70168c-.0007-4.26375-3.4575-7.7197464-7.7212-7.7197464-4.2645 0-7.72205 3.4574964-7.72205 7.7212464v.0045c-3.705.7875-6.486 4.07922-6.486 8.01972 0 4.5285 3.67125 8.1998 8.19975 8.1998h12.045c4.5285 0 8.1997-3.6713 8.1997-8.1998 0-3.951-2.7944-7.24947-6.5152-8.02572zm-3.3975.006v-.0045c.0003-1.14673-.455-2.24661-1.2656-3.05768-.8107-.81107-1.9103-1.26689-3.057-1.26719-1.1468-.0003-2.2466.45495-3.0577 1.2656s-1.2669 1.91029-1.2672 3.05702c1.6668.34873 3.1832 1.20929 4.3372 2.46147h.0016c1.1473-1.24488 2.6528-2.10287 4.3087-2.45547m-15.13425 8.02047c0 1.5503.735 2.9288 1.87425 3.8063.16241-.3917.40045-.7475.7005-1.047l5.8537-5.907c-.6415-.739-1.4935-1.2643-2.4418-1.5056-.94836-.2413-1.9478-.1872-2.86453.1551-.91672.3424-1.70698.9567-2.26496 1.7606s-.85704 1.7591-.85716 2.7376zm19.07475 2.76-5.8537-5.9077c.4399-.5068.9811-.9158 1.5888-1.2005.6077-.2848 1.2683-.439 1.9393-.4528.6709-.0137 1.3373.1133 1.9561.3729.6189.2596 1.1764.6461 1.6368 1.1344.4603.4883.8131 1.0677 1.0358 1.7008.2226.6331.3101 1.3058.2567 1.9748-.0533.669-.2462 1.3193-.5664 1.9092-.3201.5898-.7603 1.1059-1.2921 1.5152-.1627-.3917-.401-.7468-.7013-1.0463zm-8.25-3.4995-5.4915 5.541h10.983z" fill="url(#a)" fill-rule="evenodd"/></mask><g clip-path="url(#e)"><g mask="url(#f)"><g fill="#344054"><path d="m41.8623 19.1777c-.0491.0931-.1227.171-.2129.2254-.0901.0543-.1934.083-.2986.0828h-2.616c-.0997.0002-.1977-.0254-.2845-.0743s-.1595-.1194-.211-.2047c-.0515-.0854-.08-.1825-.0828-.2821s.0202-.1983.0668-.2864l7.1347-13.5262c.0487-.0924.1216-.16987.2108-.22418.0893-.05432.1915-.08344.296-.08429.1044-.00085.2072.02662.2973.07948s.1642.12914.2144.22074l7.4318 13.52545c.0485.0881.0733.1873.0718.2878-.0016.1005-.0293.1989-.0805.2854s-.1241.1582-.2115.2079-.1863.0757-.2868.0754h-2.64c-.1037.0001-.2055-.0277-.2947-.0804-.0892-.0528-.1625-.1287-.2123-.2196l-4.233-7.7032z"/><path clip-rule="evenodd" d="m80.5399 19.6785c4.0995 0 7.4228-3.3225 7.4228-7.422 0-4.09951-3.3233-7.42276-7.4228-7.42276s-7.4227 3.3225-7.4227 7.42276c0 4.0987 3.3232 7.422 7.4227 7.422zm0-3.4703c.5191 0 1.0331-.1022 1.5126-.3008.4795-.1987.9153-.4898 1.2823-.8568s.6581-.8028.8568-1.2823c.1986-.4795.3008-.9935.3008-1.5126 0-.519-.1022-1.033-.3008-1.5125-.1987-.4796-.4898-.91528-.8568-1.2823s-.8028-.65816-1.2823-.85679c-.4795-.19864-.9935-.30087-1.5126-.30087-1.0482 0-2.0536.41642-2.7948 1.15766-.7412.7412-1.1577 1.7466-1.1577 2.7948 0 1.0483.4165 2.0536 1.1577 2.7949.7412.7412 1.7466 1.1576 2.7948 1.1576zm18.315 3.4703c4.0991 0 7.4231-3.3225 7.4231-7.422 0-4.09951-3.324-7.42276-7.4231-7.42276-4.0995 0-7.4227 3.3225-7.4227 7.42276 0 4.0987 3.3232 7.422 7.4227 7.422zm0-3.4703c.5191 0 1.0331-.1022 1.5121-.3008.48-.1987.916-.4898 1.283-.8568s.658-.8028.857-1.2823c.198-.4795.3-.9935.3-1.5126 0-.519-.102-1.033-.3-1.5125-.199-.4796-.49-.91528-.857-1.2823s-.803-.65816-1.283-.85679c-.479-.19864-.993-.30087-1.5121-.30087-1.0482 0-2.0536.41642-2.7948 1.15766-.7412.7412-1.1577 1.7466-1.1577 2.7948 0 1.0483.4165 2.0536 1.1577 2.7949.7412.7412 1.7466 1.1576 2.7948 1.1576z" fill-rule="evenodd"/><path d="m58.6642 5.02661c-.076-.0001-.1512.01479-.2214.04382-.0702.02902-.134.07161-.1877.12533-.0537.05371-.0963.1175-.1253.1877-.0291.0702-.044.14544-.0439.2214v13.30274c0 .3195.2588.5783.5775.5783h2.3145c.0759 0 .1511-.015.2212-.0441.0701-.029.1338-.0716.1875-.1253.0536-.0538.0961-.1175.1251-.1877.029-.0701.0438-.1453.0437-.2212v-5.2545l4.5885 5.6205c.1095.135.2738.2123.4478.2123h2.9865c.1094 0 .2166-.0311.3091-.0896.0926-.0585.1666-.142.2134-.2409.0469-.0989.0648-.2091.0516-.3177-.0133-.1087-.0571-.2114-.1264-.2961l-5.598-6.858 5.115-5.69249c.0746-.0831.1236-.18601.1409-.29632.0174-.1103.0024-.22328-.043-.32527-.0454-.102-.1195-.18866-.2131-.24951s-.2028-.09329-.3145-.0934h-3.1103c-.0812-.00007-.1615.01699-.2357.05008-.0742.03308-.1405.08144-.1948.14192l-4.0162 4.47v-4.08375c0-.0759-.015-.15106-.044-.22117-.0291-.07012-.0717-.13381-.1254-.18745-.0537-.05363-.1175-.09616-.1876-.12513-.0702-.02898-.1454-.04385-.2213-.04375zm51.5548.57825c0-.3195.259-.5775.578-.5775h2.314c.32 0 .578.258.578.5775v10.41074h7.109c.076-.0001.151.0148.221.0438.071.0291.134.0716.188.1254.054.0537.096.1175.125.1877s.044.1454.044.2214v2.3137c0 .076-.015.1512-.044.2214s-.071.134-.125.1877-.117.0963-.188.1253c-.07.0291-.145.044-.221.0439h-10.001c-.076.0001-.151-.0148-.221-.0439-.07-.029-.134-.0716-.188-.1253-.053-.0537-.096-.1175-.125-.1877s-.044-.1454-.044-.2214z"/></g><path clip-rule="evenodd" d="m22.648 7.70168c-.0007-4.26375-3.4575-7.7197464-7.7212-7.7197464-4.2645 0-7.72205 3.4574964-7.72205 7.7212464v.0045c-3.705.7875-6.486 4.07922-6.486 8.01972 0 4.5285 3.67125 8.1998 8.19975 8.1998h12.045c4.5285 0 8.1997-3.6713 8.1997-8.1998 0-3.951-2.7944-7.24947-6.5152-8.02572zm-3.3975.006v-.0045c.0003-1.14673-.455-2.24661-1.2656-3.05768-.8107-.81107-1.9103-1.26689-3.057-1.26719-1.1468-.0003-2.2466.45495-3.0577 1.2656s-1.2669 1.91029-1.2672 3.05702c1.6668.34873 3.1832 1.20929 4.3372 2.46147h.0016c1.1473-1.24488 2.6528-2.10287 4.3087-2.45547m-15.13425 8.02047c0 1.5503.735 2.9288 1.87425 3.8063.16241-.3917.40045-.7475.7005-1.047l5.8537-5.907c-.6415-.739-1.4935-1.2643-2.4418-1.5056-.94836-.2413-1.9478-.1872-2.86453.1551-.91672.3424-1.70698.9567-2.26496 1.7606s-.85704 1.7591-.85716 2.7376zm19.07475 2.76-5.8537-5.9077c.4399-.5068.9811-.9158 1.5888-1.2005.6077-.2848 1.2683-.439 1.9393-.4528.6709-.0137 1.3373.1133 1.9561.3729.6189.2596 1.1764.6461 1.6368 1.1344.4603.4883.8131 1.0677 1.0358 1.7008.2226.6331.3101 1.3058.2567 1.9748-.0533.669-.2462 1.3193-.5664 1.9092-.3201.5898-.7603 1.1059-1.2921 1.5152-.1627-.3917-.401-.7468-.7013-1.0463zm-8.25-3.4995-5.4915 5.541h10.983z" fill="url(#a)" fill-rule="evenodd"/><g mask="url(#g)"><path d="m11.734 6.77686 3.2693 3.32024-4.4018 4.443-3.32025-3.2925z" fill="url(#b)"/><path d="m25.966 3.84204h-9.4972v5.025c1.3347-.87524 2.8964-1.34062 4.4924-1.33875 1.8848 0 3.6203.63525 5.0048 1.704z" fill="url(#c)"/><path d="m20.8914 23.9249c1.7812-.069 3.204-1.5038 3.204-3.2625.0004-.7735-.2784-1.521-.7853-2.1053h6.288v5.37h-8.7075z" fill="url(#d)"/></g></g></g></svg>